<svg  xmlns="http://www.w3.org/2000/svg">

  <symbol viewBox="0 0 24 24"  id="search">
    <path d="M0 0h24v24H0z" fill="none" />
    <path
        d="M15.5 14h-.79l-.28-.27C15.41 12.59 16 11.11 16 9.5 16 5.91 13.09 3 9.5 3S3 5.91 3 9.5 5.91 16 9.5 16c1.61 0 3.09-.59 4.23-1.57l.27.28v.79l5 4.99L20.49 19l-4.99-5zm-6 0C7.01 14 5 11.99 5 9.5S7.01 5 9.5 5 14 7.01 14 9.5 11.99 14 9.5 14z" />
  </symbol>

   <symbol viewBox="0 0 24 24" id="micro">
    <path d="M0 0h24v24H0z" fill="none" />
    <path
        d="M12 15c1.66 0 2.99-1.34 2.99-3L15 6c0-1.66-1.34-3-3-3S9 4.34 9 6v6c0 1.66 1.34 3 3 3zm5.3-3c0 3-2.54 5.1-5.3 5.1S6.7 15 6.7 12H5c0 3.42 2.72 6.23 6 6.72V22h2v-3.28c3.28-.48 6-3.3 6-6.72h-1.7z" />
  </symbol>

  <symbol viewBox="0 0 24 24" id="favorite">
     <path d="M0 0h24v24H0z" fill="none" />
    <path
        d="M16.5 3c-1.74 0-3.41.81-4.5 2.09C10.91 3.81 9.24 3 7.5 3 4.42 3 2 5.42 2 8.5c0 3.78 3.4 6.86 8.55 11.54L12 21.35l1.45-1.32C18.6 15.36 22 12.28 22 8.5 22 5.42 19.58 3 16.5 3zm-4.4 15.55l-.1.1-.1-.1C7.14 14.24 4 11.39 4 8.5 4 6.5 5.5 5 7.5 5c1.54 0 3.04.99 3.57 2.36h1.87C13.46 5.99 14.96 5 16.5 5c2 0 3.5 1.5 3.5 3.5 0 2.89-3.14 5.74-7.9 10.05z" />
  </symbol>

  <symbol viewBox="0 0 24 24" id="location">
        <path d="M0,0h24v24H0V0z" fill="none" />
        <path
            d="M12,12c-1.1,0-2-0.9-2-2s0.9-2,2-2c1.1,0,2,0.9,2,2S13.1,12,12,12z M18,10.2C18,6.57,15.35,4,12,4s-6,2.57-6,6.2 c0,2.34,1.95,5.44,6,9.14C16.05,15.64,18,12.54,18,10.2z M12,2c4.2,0,8,3.22,8,8.2c0,3.32-2.67,7.25-8,11.8 c-5.33-4.55-8-8.48-8-11.8C4,5.22,7.8,2,12,2z" />
  </symbol>

  <symbol viewBox="0 0 24 24" id="user">
    <path d="M0 0h24v24H0V0z" fill="none" />
    <path
        d="M12 6c1.1 0 2 .9 2 2s-.9 2-2 2-2-.9-2-2 .9-2 2-2m0 10c2.7 0 5.8 1.29 6 2H6c.23-.72 3.31-2 6-2m0-12C9.79 4 8 5.79 8 8s1.79 4 4 4 4-1.79 4-4-1.79-4-4-4zm0 10c-2.67 0-8 1.34-8 4v2h16v-2c0-2.66-5.33-4-8-4z" />
  </symbol>
    <symbol viewBox="0 0 24 24" id="expand">
    <path d="M0 0h24v24H0z" fill="none" />
    <path d="M16.59 8.59L12 13.17 7.41 8.59 6 10l6 6 6-6z" />
  </symbol>

      <symbol viewBox="0 0 24 24" id="phone">
    <path d="M0 0h24v24H0V0z" fill="none" />
    <path
        d="M19.23 15.26l-2.54-.29c-.61-.07-1.21.14-1.64.57l-1.84 1.84c-2.83-1.44-5.15-3.75-6.59-6.59l1.85-1.85c.43-.43.64-1.03.57-1.64l-.29-2.52c-.12-1.01-.97-1.77-1.99-1.77H5.03c-1.13 0-2.07.94-2 2.07.53 8.54 7.36 15.36 15.89 15.89 1.13.07 2.07-.87 2.07-2v-1.73c.01-1.01-.75-1.86-1.76-1.98z" />
  </symbol>

</svg>


