<?xml version="1.0" encoding="utf-8"?>
<!-- Generator: Adobe Illustrator 26.0.3, SVG Export Plug-In . SVG Version: 6.00 Build 0)  -->
<svg version="1.0" id="katman_1" xmlns="http://www.w3.org/2000/svg" xmlns:xlink="http://www.w3.org/1999/xlink" x="0px" y="0px"
	 viewBox="0 0 800 600" style="enable-background:new 0 0 800 600;" xml:space="preserve">
<style type="text/css">
	.st0{fill:#4A4F55;}
</style>
<path class="st0" d="M215.9,182.1h-7.3H88.1h-7.3l-0.8,7.2c-0.2,1.2-3,29,3.2,60.1c8.6,42.7,30.2,70.7,62.6,81.2l2.5,0.8l2.5-0.8
	c32.4-10.4,54.1-38.6,62.6-81.2c6.2-31.1,3.3-59,3.2-60.1L215.9,182.1z M208.7,190.2c0,0,11.8,109.4-60.2,132.8
	c-72.1-23.3-60.2-132.8-60.2-132.8S208.7,190.2,208.7,190.2z M205.2,227.2l-87.8,68.4c-1.6-2-3.1-4-4.5-6.2
	c-6.8-10.2-12-22.7-15.5-37.4L205.2,227.2z M358.8,180.6h20.9l-57.7,143h-21.9l-57.5-143h20.9l47.6,121.9L358.8,180.6z M422.7,222.9
	c25.6,0,36.8,20.7,37,37.4h-73.7C386.8,243.1,398.7,222.9,422.7,222.9 M426.4,312c-24.2,0-39.1-17.7-40.5-38.9h90.9v-4.4
	c0-33.8-20-60.2-53.9-60.2c-32.1,0-55.4,26.3-55.4,58.9c0,35.1,23.9,59.1,57.2,59.1c18.4,0,33.5-6.1,44.6-17.2l-8.4-11.4
	C452.2,306.9,439.2,312,426.4,312 M545.5,226.6c-22.5,0-32.3,8.4-37.4,17.5v79.6h-17.5V211.3H508v18.2c9.1-11.9,22.1-18.2,37.4-18.2
	V226.6z M706.7,323.6v-15.8c-8.6,9.8-23.3,18.6-40,18.6c-23.5,0-35.8-11.4-35.8-35.9v-79.3h17.5v74c0,19.8,10,25.6,25.1,25.6
	c13.7,0,26.8-7.9,33.2-17v-82.6h17.5v112.4H706.7z M620.2,319.2c-4.4,4.2-10.7,7.2-20.9,7.2c-16.5,0-24.9-9.5-24.9-26.3v-73.5h-15.5
	v-15.4h15.5V187h17.5v24.2h25.9v15.4h-25.9v69.8c0,8.4,3.8,14.4,11.4,14.4c4.9,0,9.5-2.1,11.9-4.7L620.2,319.2z M362.8,360.1h12.6
	v57.5h-10.3v-37.4l-15.5,37.4h-5.1l-15.4-37.3v37.3h-10.3v-57.5h12.7l15.6,37.8L362.8,360.1z M428.2,374c-12.2,0-21.1,9.4-21.1,22.3
	s8.9,22.4,21.1,22.4c12.2,0,21.1-9.4,21.1-22.4C449.4,383.3,440.5,374,428.2,374z M439.5,396.2c0,6.5-3.5,13.4-11.2,13.4
	c-7.7,0-11.3-6.9-11.3-13.4c0-6.4,3.5-13.3,11.3-13.3C436,382.9,439.5,389.8,439.5,396.2z M498.7,406.4l3.2,8.3l-0.8,0.8
	c-2.1,2-4.9,3-8.5,3c-6.6,0-10.4-4-10.4-10.9v-23.9h-6.5v-8.9h6.5v-10.7h9.6v10.7h8v8.9h-8v22.5c0,1.5,0.4,3.2,2.2,3.2
	c1.4,0,2.5-0.7,2.9-1.1l0.8-0.8L498.7,406.4z M548.7,374c-12.2,0-21.1,9.4-21.1,22.3s8.9,22.4,21.1,22.4s21.1-9.4,21.1-22.4
	C569.8,383.3,560.9,374,548.7,374z M559.9,396.2c0,6.5-3.5,13.4-11.2,13.4c-7.7,0-11.3-6.9-11.3-13.4c0-6.4,3.5-13.3,11.3-13.3
	C556.4,382.9,559.9,389.8,559.9,396.2z M622.2,374.1h1.8v10.2l-2.2-0.5c-0.6-0.2-1.3-0.2-2-0.2c-2.9,0-7.1,2.4-8.9,5v29h-9.6v-42.6
	h9.6v3.6C614.2,375.7,618.1,374.1,622.2,374.1z M684.5,404.9c0,8.3-6.8,13.6-17.2,13.6c-7.1,0-12.9-2.3-17.1-6.7l-1-1.1l5.3-7.4
	l1.4,1.7c2.2,2.5,6.5,5,11.6,5c4.7,0,7.5-1.9,7.5-5c0-2.6-3.3-3.7-8.9-5c-6.5-1.6-15.4-3.8-15.4-13.1c0-6.3,5.1-13,16.4-13
	c6.2,0,11.7,2.1,15.8,6.2l1.1,1.1l-5,7.4l-1.5-1.8c-2.2-2.6-6.2-4.3-10.3-4.3c-4.1,0-6.9,1.8-6.9,4.4c0,2.3,3.8,3.2,8.2,4.2
	l-0.2,1.1l0,0l0,0l0,0l0.2-1.1C675.2,392.6,684.5,394.9,684.5,404.9z"/>
</svg>
